<?xml version="1.0" encoding="utf-8"?>
<!-- Generator: Adobe Illustrator 15.0.0, SVG Export Plug-In . SVG Version: 6.00 Build 0)  -->
<!DOCTYPE svg PUBLIC "-//W3C//DTD SVG 1.1//EN" "http://www.w3.org/Graphics/SVG/1.1/DTD/svg11.dtd">
<svg version="1.1" id="レイヤー_1" xmlns="http://www.w3.org/2000/svg" xmlns:xlink="http://www.w3.org/1999/xlink" x="0px"
	 y="0px" width="436.553px" height="388.977px" viewBox="0 0 436.553 388.977" enable-background="new 0 0 436.553 388.977"
	 xml:space="preserve">
<g>
	<path fill="#31A6E0" d="M29.396,356.496h12.199c0.605,0,1.062,0.018,1.365,0.059c0.304,0.039,0.655,0.166,1.05,0.375
		c0.713,0.369,1.068,1.396,1.068,3.078c0,1.842-0.488,2.922-1.463,3.24c-0.45,0.156-1.137,0.236-2.062,0.236H25.87
		c-1.849,0-2.932-0.502-3.247-1.502c-0.159-0.42-0.237-1.09-0.237-2.013v-21.95c0-1.343,0.249-2.257,0.752-2.742
		c0.503-0.488,1.453-0.732,2.852-0.732h15.605c0.605,0,1.062,0.021,1.365,0.061c0.303,0.041,0.655,0.164,1.05,0.373
		c0.713,0.371,1.068,1.396,1.068,3.08c0,1.842-0.488,2.92-1.463,3.238c-0.45,0.158-1.137,0.236-2.062,0.236H29.396v3.988h7.843
		c0.604,0,1.062,0.02,1.365,0.059s0.654,0.164,1.049,0.377c0.714,0.367,1.07,1.393,1.07,3.078c0,1.842-0.501,2.922-1.506,3.234
		c-0.447,0.159-1.136,0.237-2.059,0.237h-7.763L29.396,356.496L29.396,356.496z"/>
	<path fill="#31A6E0" d="M65.067,357.641H75.84c0.87,0,1.503,0.1,1.901,0.297c0.396,0.194,0.657,0.508,0.79,0.926
		c0.132,0.422,0.198,0.981,0.198,1.68s-0.066,1.256-0.198,1.678c-0.133,0.42-0.356,0.709-0.671,0.867
		c-0.503,0.264-1.189,0.396-2.062,0.396H61.541c-1.848,0-2.931-0.502-3.245-1.502c-0.161-0.42-0.238-1.09-0.238-2.013v-21.95
		c0-0.605,0.02-1.062,0.059-1.363c0.04-0.301,0.166-0.65,0.375-1.043c0.37-0.713,1.401-1.068,3.092-1.068
		c1.845,0,2.942,0.486,3.284,1.461c0.133,0.449,0.2,1.133,0.2,2.053L65.067,357.641L65.067,357.641z"/>
	<path fill="#31A6E0" d="M97.746,356.496h12.197c0.608,0,1.063,0.018,1.368,0.059c0.303,0.039,0.651,0.166,1.05,0.375
		c0.712,0.369,1.068,1.396,1.068,3.078c0,1.842-0.489,2.922-1.467,3.24c-0.447,0.156-1.135,0.236-2.059,0.236H94.222
		c-1.849,0-2.932-0.502-3.249-1.502c-0.158-0.42-0.237-1.09-0.237-2.013v-21.95c0-1.343,0.251-2.257,0.753-2.742
		c0.501-0.488,1.451-0.732,2.852-0.732h15.604c0.608,0,1.063,0.021,1.368,0.061c0.303,0.039,0.651,0.164,1.05,0.373
		c0.712,0.371,1.068,1.396,1.068,3.08c0,1.842-0.489,2.92-1.467,3.238c-0.447,0.158-1.135,0.236-2.059,0.236H97.746v3.988h7.841
		c0.607,0,1.063,0.02,1.367,0.059c0.304,0.039,0.652,0.164,1.05,0.377c0.714,0.367,1.07,1.393,1.07,3.078
		c0,1.842-0.504,2.922-1.507,3.234c-0.45,0.159-1.136,0.237-2.058,0.237h-7.764L97.746,356.496L97.746,356.496z"/>
	<path fill="#31A6E0" d="M143.371,355.902l0.713-0.512c0.896-0.525,1.531-0.791,1.901-0.791c0.817,0,1.701,0.737,2.652,2.211
		c0.579,0.924,0.872,1.657,0.872,2.211c0,0.553-0.18,1.016-0.535,1.383c-0.356,0.367-0.771,0.697-1.246,0.986
		c-0.475,0.288-0.931,0.567-1.367,0.829c-0.438,0.265-1.326,0.605-2.675,1.027c-1.346,0.42-2.646,0.631-3.901,0.631
		c-1.253,0-2.521-0.166-3.801-0.494c-1.282-0.327-2.603-0.881-3.961-1.657c-1.359-0.775-2.581-1.724-3.664-2.843
		c-1.083-1.12-1.972-2.553-2.672-4.305c-0.701-1.75-1.05-3.649-1.05-5.705c0-2.051,0.344-3.912,1.028-5.584
		c0.688-1.672,1.566-3.055,2.636-4.146c1.068-1.094,2.289-2.008,3.663-2.746c2.586-1.422,5.188-2.131,7.802-2.131
		c1.24,0,2.5,0.191,3.782,0.572c1.281,0.383,2.252,0.771,2.911,1.164l0.95,0.555c0.476,0.289,0.846,0.525,1.109,0.711
		c0.688,0.55,1.029,1.177,1.029,1.875c0,0.697-0.276,1.427-0.831,2.188c-1.031,1.422-1.953,2.133-2.773,2.133
		c-0.476,0-1.146-0.289-2.021-0.866c-1.107-0.896-2.585-1.343-4.434-1.343c-1.719,0-3.406,0.593-5.069,1.777
		c-0.793,0.578-1.453,1.393-1.981,2.446c-0.527,1.052-0.793,2.24-0.793,3.572c0,1.328,0.266,2.519,0.793,3.57
		c0.528,1.055,1.202,1.885,2.02,2.49c1.611,1.156,3.288,1.733,5.031,1.733c0.818,0,1.588-0.104,2.314-0.313
		C142.532,356.324,143.054,356.115,143.371,355.902z"/>
	<path fill="#31A6E0" d="M163.926,334.505h22.021c0.843,0,1.466,0.101,1.86,0.297c0.397,0.197,0.66,0.509,0.793,0.929
		c0.133,0.422,0.198,0.973,0.198,1.657s-0.065,1.23-0.198,1.64c-0.133,0.408-0.356,0.688-0.674,0.85
		c-0.476,0.236-1.147,0.354-2.02,0.354h-7.564v19.857c0,0.607-0.02,1.053-0.059,1.342c-0.042,0.291-0.16,0.625-0.356,1.008
		c-0.199,0.384-0.549,0.65-1.05,0.812c-0.502,0.156-1.163,0.235-1.98,0.235c-0.818,0-1.473-0.079-1.961-0.235
		c-0.489-0.16-0.833-0.428-1.028-0.812c-0.199-0.383-0.318-0.725-0.359-1.026c-0.038-0.304-0.058-0.758-0.058-1.361V340.23h-7.605
		c-0.846,0-1.465-0.101-1.859-0.297c-0.398-0.195-0.661-0.509-0.793-0.929c-0.133-0.42-0.199-0.973-0.199-1.657
		c0-0.683,0.066-1.229,0.199-1.64c0.132-0.408,0.356-0.69,0.674-0.849C162.381,334.625,163.053,334.505,163.926,334.505z"/>
	<path fill="#31A6E0" d="M222.808,358.587c0.398,0.947,0.594,1.633,0.594,2.056c0,0.998-0.818,1.842-2.457,2.522
		c-0.846,0.371-1.525,0.555-2.039,0.555c-0.514,0-0.937-0.127-1.268-0.375c-0.326-0.25-0.576-0.506-0.732-0.77
		c-0.266-0.5-1.293-2.886-3.09-7.146l-1.227,0.078h-4.992v4.463c0,0.605-0.018,1.062-0.055,1.359
		c-0.043,0.303-0.166,0.651-0.379,1.047c-0.369,0.711-1.398,1.063-3.09,1.063c-1.848,0-2.932-0.483-3.247-1.459
		c-0.159-0.444-0.237-1.131-0.237-2.051v-21.912c0-0.604,0.021-1.061,0.059-1.362c0.041-0.302,0.166-0.65,0.376-1.043
		c0.369-0.714,1.401-1.068,3.091-1.068h8.555c2.322,0,4.578,0.842,6.771,2.527c1.055,0.813,1.928,1.922,2.615,3.315
		c0.686,1.396,1.029,2.949,1.029,4.658c0,2.975-0.992,5.422-2.973,7.342C220.694,353.785,221.593,355.85,222.808,358.587z
		 M207.597,348.52h5.072c0.764,0,1.529-0.289,2.299-0.867c0.762-0.578,1.146-1.445,1.146-2.605c0-1.158-0.383-2.031-1.146-2.627
		c-0.77-0.592-1.561-0.887-2.379-0.887h-4.992V348.52z"/>
	<path fill="#31A6E0" d="M254.819,335.613c0.262-0.422,0.645-0.713,1.145-0.871c0.504-0.156,1.129-0.236,1.879-0.236
		c0.758,0,1.355,0.066,1.807,0.197c0.447,0.133,0.791,0.291,1.027,0.475c0.238,0.187,0.408,0.461,0.519,0.828
		c0.156,0.449,0.238,1.133,0.238,2.053v11.924c0,3.474-1.086,6.632-3.25,9.474c-1.055,1.344-2.414,2.43-4.078,3.258
		c-1.668,0.828-3.506,1.244-5.523,1.244c-2.02,0-3.859-0.42-5.506-1.265c-1.652-0.844-2.992-1.946-4.021-3.313
		c-2.137-2.791-3.207-5.948-3.207-9.477V338.02c0-0.631,0.02-1.1,0.059-1.401c0.041-0.304,0.166-0.648,0.375-1.045
		c0.215-0.396,0.57-0.673,1.068-0.83c0.506-0.156,1.178-0.236,2.021-0.236s1.518,0.08,2.021,0.236c0.5,0.157,0.842,0.436,1.027,0.83
		c0.318,0.604,0.475,1.434,0.475,2.485v11.844c0,1.605,0.398,3.136,1.191,4.58c0.395,0.736,0.988,1.328,1.781,1.775
		c0.791,0.449,1.73,0.672,2.812,0.672c1.926,0,3.365-0.709,4.314-2.131c0.951-1.422,1.428-3.064,1.428-4.936v-12.08
		C254.421,336.755,254.554,336.035,254.819,335.613z"/>
	<path fill="none" d="M299.34,361.021c-0.025-0.317-0.251-0.678-0.251-1.09v-13.228c0,0.813-1.416,2.11-2.682,3.889
		c-1.267,1.775-1.97,2.89-2.313,3.334c-0.34,0.449-0.525,0.759-0.658,0.929c-0.138,0.174-0.432,0.412-0.944,0.711
		c-0.519,0.303-1.058,0.455-1.648,0.455c-0.596,0-1.131-0.14-1.618-0.414c-0.488-0.277-0.836-0.549-1.048-0.81l-0.315-0.436
		c-0.528-0.658-1.623-2.062-3.18-4.205c-1.562-2.144-2.592-3.297-2.592-3.453v13.303c0,0.438,0.041,0.769,0.021,1.048l8.594,11.344
		C294.945,366.798,297.764,363.021,299.34,361.021z"/>
	<path fill="#31A6E0" d="M306.089,338.1c0-0.605,0.191-1.066,0.152-1.384s-0.058-0.672-0.269-1.063
		c-0.367-0.711-1.339-1.066-3.017-1.066c-1.674,0-2.712,0.355-3.159,1.066c-1.506,1.895-4.49,5.803-8.977,11.725l-8.985-11.764
		l-0.233-0.236c-0.158-0.186-0.492-0.365-1.008-0.535c-0.518-0.17-1.13-0.256-1.843-0.256c-1.662,0-2.694,0.342-3.089,1.027
		c-0.211,0.393-0.406,0.742-0.445,1.043c-0.039,0.303-0.129,0.758-0.129,1.363v21.912c0,0.631,0.09,1.104,0.129,1.42
		c0.008,0.053,0.064,0.109,0.076,0.164c0.057-0.266,0.176-0.555,0.352-0.882c0.396-0.684,1.438-1.026,3.1-1.026
		c0.713,0,1.331,0.084,1.849,0.256c0.517,0.174,0.853,0.35,1.011,0.533l0.238,0.237l0.268,0.421c0.021-0.279-0.021-0.61-0.021-1.048
		v-13.303c0,0.156,1.031,1.312,2.593,3.453c1.557,2.145,2.625,3.547,3.153,4.205l0.33,0.436c0.211,0.261,0.569,0.531,1.058,0.81
		c0.488,0.274,1.032,0.414,1.629,0.414c0.592,0,1.146-0.152,1.664-0.455c0.514-0.299,0.834-0.537,0.972-0.711
		c0.133-0.17,0.372-0.479,0.712-0.929c0.344-0.444,0.943-1.559,2.209-3.334c1.266-1.776,2.682-3.073,2.682-3.889v13.228
		c0,0.412,0.225,0.771,0.251,1.09c0.091-0.114,0.3-0.246,0.382-0.351c0.446-0.711,1.562-1.063,3.236-1.063
		c1.678,0,2.729,0.354,3.097,1.063c0.146,0.272,0.033,0.519,0.098,0.752c0.09-0.407-0.062-0.875-0.062-1.416V338.1H306.089z"/>
	<path fill="#88C6E9" d="M303.011,359.607c-1.674,0-2.737,0.354-3.186,1.063c-0.082,0.104-0.187,0.235-0.276,0.351
		c-1.576,2-4.472,5.776-8.714,11.377l-8.671-11.345l-0.321-0.42l-0.237-0.237c-0.158-0.185-0.492-0.359-1.008-0.533
		c-0.519-0.172-1.132-0.256-1.845-0.256c-1.662,0-2.694,0.344-3.09,1.026c-0.177,0.327-0.277,0.616-0.334,0.882
		c-0.013,0.053-0.104,0.112-0.111,0.163c-0.039,0.304-0.129,0.759-0.129,1.363v21.908c0,0.633,0.09,1.104,0.129,1.422
		s0.199,0.657,0.41,1.026c0.396,0.711,1.416,1.064,3.024,1.064c1.668,0,2.707-0.354,3.104-1.064
		c0.209-0.368,0.284-0.705,0.325-1.008c0.039-0.299,0.008-0.754,0.008-1.358v-13.308c0,0.16,1.031,1.312,2.593,3.455
		c1.557,2.146,2.625,3.547,3.153,4.205l0.33,0.432c0.211,0.267,0.569,0.535,1.058,0.812c0.488,0.279,1.032,0.416,1.629,0.416
		c0.592,0,1.146-0.151,1.664-0.455c0.514-0.303,0.834-0.539,0.971-0.709c0.134-0.172,0.373-0.479,0.713-0.93
		c0.344-0.445,0.943-1.56,2.209-3.334c1.266-1.779,2.682-3.074,2.682-3.892v13.226c0,0.924,0.275,1.604,0.406,2.053
		c0.135,0.344,0.425,0.604,0.661,0.791c0.237,0.185,0.632,0.344,1.079,0.474c0.453,0.133,1.08,0.196,1.851,0.196
		c0.767,0,1.197-0.078,1.699-0.235c1.002-0.316,1.304-1.384,1.304-3.195v-21.912c0-0.607,0.191-1.066,0.152-1.383
		c-0.012-0.1,0.06-0.209,0.03-0.314c-0.063-0.232-0.101-0.479-0.244-0.752C305.66,359.96,304.688,359.607,303.011,359.607z"/>
	<path fill="#88C6E9" d="M333.632,359.212c3.912,0,7.306,1.408,10.183,4.226c2.877,2.816,4.315,6.309,4.315,10.479
		s-1.373,7.726-4.119,10.66s-6.125,4.399-10.139,4.399s-7.428-1.444-10.24-4.342c-2.809-2.895-4.215-6.344-4.215-10.344
		c0-2.184,0.396-4.23,1.188-6.139c0.791-1.908,1.85-3.506,3.17-4.797c1.317-1.289,2.838-2.304,4.553-3.041
		C330.042,359.582,331.815,359.212,333.632,359.212z M326.425,374.095c0,2.343,0.763,4.244,2.277,5.705
		c1.52,1.461,3.217,2.191,5.094,2.191c1.871,0,3.562-0.711,5.066-2.132c1.504-1.422,2.258-3.329,2.258-5.727
		c0-2.395-0.758-4.314-2.279-5.764c-1.518-1.447-3.213-2.172-5.088-2.172s-3.563,0.731-5.07,2.19
		C327.181,369.85,326.425,371.753,326.425,374.095z"/>
	<path fill="#88C6E9" d="M379.702,360.771c0.252-0.459,0.627-0.769,1.125-0.929c0.502-0.157,1.131-0.235,1.883-0.235
		c0.754,0,1.359,0.063,1.824,0.196c0.461,0.134,0.803,0.289,1.026,0.476c0.228,0.184,0.39,0.459,0.496,0.828
		c0.156,0.42,0.238,1.094,0.238,2.014v21.912c0,0.631-0.02,1.09-0.059,1.379c-0.041,0.291-0.17,0.633-0.379,1.027
		c-0.367,0.709-1.4,1.063-3.086,1.063c-1.033,0-1.746-0.076-2.142-0.235c-0.397-0.156-0.727-0.408-0.992-0.748
		c-5.938-7.896-9.85-13.054-11.723-15.478v12.99c0,0.631-0.021,1.09-0.062,1.379c-0.036,0.291-0.159,0.633-0.375,1.026
		c-0.368,0.709-1.399,1.064-3.088,1.064c-1.637,0-2.641-0.355-3.012-1.064c-0.211-0.395-0.332-0.748-0.375-1.065
		c-0.039-0.315-0.061-0.777-0.061-1.383v-22.025c0-1.002,0.127-1.729,0.377-2.192c0.25-0.459,0.627-0.769,1.127-0.929
		c0.506-0.157,1.149-0.235,1.942-0.235s1.423,0.074,1.882,0.217c0.463,0.146,0.782,0.311,0.971,0.492
		c0.102,0.08,0.408,0.422,0.91,1.026c5.569,7.556,9.293,12.541,11.17,14.962v-13.341
		C379.325,361.962,379.448,361.234,379.702,360.771z"/>
	<path fill="#88C6E9" d="M415.829,361.619l10.692,22.031c0.447,0.895,0.673,1.565,0.673,2.014c0,0.945-0.767,1.803-2.298,2.564
		c-0.897,0.446-1.604,0.672-2.116,0.672c-0.519,0-0.941-0.117-1.271-0.354c-0.332-0.235-0.569-0.487-0.713-0.752
		c-0.146-0.262-0.35-0.658-0.611-1.187l-2.062-4.262h-10.971l-2.058,4.262c-0.268,0.527-0.471,0.91-0.612,1.146
		c-0.146,0.236-0.386,0.48-0.716,0.73c-0.332,0.25-0.754,0.373-1.266,0.373c-0.516,0-1.223-0.224-2.121-0.668
		c-1.533-0.738-2.299-1.582-2.299-2.527c0-0.447,0.225-1.119,0.674-2.014l10.693-22.068c0.291-0.607,0.731-1.092,1.326-1.461
		c0.596-0.367,1.225-0.553,1.883-0.553C414.085,359.568,415.142,360.253,415.829,361.619z M412.62,371.095l-2.617,5.408h5.271
		L412.62,371.095z"/>
	<path fill="#31A6E0" d="M91.495,278.02H67.98c-4.446,0-8.053-3.595-8.053-8.025c0-4.436,3.606-8.029,8.053-8.029h16.716
		c-0.984-3.703-1.621-7.539-1.903-11.471H47.099c-4.447,0-8.054-3.594-8.054-8.027c0-4.433,3.606-8.027,8.054-8.027h35.516V94.616
		c0-34.479,21.073-43.858,46.83-20.845l45.875,40.994c1.661-2.463,3.486-4.831,5.497-7.068l54.878-61.021
		C258.784,21.005,249.376,0,214.784,0H62.89C28.301,0,0,28.209,0,62.687v183.379c0,34.477,28.301,62.686,62.89,62.686h151.895
		c0.734,0,1.438-0.021,2.148-0.041h-71.428C122.622,308.71,102.5,296.361,91.495,278.02z"/>
	<path fill="#88C6E9" d="M428.499,234.439h-36.133V94.616c0-34.479-21.074-43.858-46.832-20.843l-61.216,54.7
		c-25.753,23.015-67.901,23.015-93.657,0.002l-15.342-13.71c-17.404,25.807-15.58,62.852,5.497,86.289l54.88,61.021
		c22.6,25.129,14.045,45.772-18.764,46.635h112.541c22.881,0,43.004-12.351,54.011-30.69h35.801c4.444,0,8.055-3.595,8.055-8.025
		c0-4.436-3.608-8.029-8.055-8.029h-29.002c0.985-3.703,1.619-7.539,1.901-11.471h36.314c4.447,0,8.055-3.594,8.055-8.027
		C436.553,238.034,432.946,234.439,428.499,234.439z"/>
	<path fill="#1DB6EE" d="M235.696,262.076l-54.88-61.021c-21.077-23.437-22.901-60.481-5.497-86.289l-45.875-40.994
		c-25.757-23.014-46.83-13.635-46.83,20.845V234.44H47.099c-4.447,0-8.054,3.594-8.054,8.027c0,4.434,3.606,8.027,8.054,8.027
		h35.694c0.282,3.932,0.919,7.768,1.903,11.471H67.98c-4.446,0-8.053,3.594-8.053,8.029c0,4.432,3.606,8.025,8.053,8.025h23.515
		c11.005,18.342,31.127,30.69,54.01,30.69h71.428C249.741,307.85,258.296,287.205,235.696,262.076z"/>
</g>
</svg>
